<svg xmlns="http://www.w3.org/2000/svg" version="1.1" viewBox="-5 -5 110 110">
 <path d="m76 58h-12c-1.1016 0-2 0.89844-2 2s0.89844 2 2 2h10v10c0 1.1016 0.89844 2 2 2s2-0.89844 2-2v-12c0-1.1016-0.89844-2-2-2z"/>
 <path d="m80 18h-15c-1.1016 0-2 0.89844-2 2v13h-13c-1.1016 0-2 0.89844-2 2v13h-13c-1.1016 0-2 0.89844-2 2v13h-13c-1.1016 0-2 0.89844-2 2v15c0 1.1016 0.89844 2 2 2s2-0.89844 2-2v-13h13c1.1016 0 2-0.89844 2-2v-13h13c1.1016 0 2-0.89844 2-2v-13h13c1.1016 0 2-0.89844 2-2v-13h13c1.1016 0 2-0.89844 2-2s-0.89844-2-2-2z"/>
 <path d="m68.59 64.59-14 14c-0.78125 0.78125-0.78125 2.0508 0 2.8281 0.39062 0.39062 0.89844 0.58984 1.4102 0.58984s1.0195-0.19922 1.4102-0.58984l14-14c0.78125-0.78125 0.78125-2.0508 0-2.8281-0.78125-0.78125-2.0508-0.78125-2.8281 0z"/></svg>