<svg xmlns="http://www.w3.org/2000/svg" viewBox="0 0 64 64" x="0px" y="0px"><title>otomotif setir</title><g data-name="otomotif setir"><path d="M32,61A29,29,0,1,1,61,32,29,29,0,0,1,32,61ZM32,5A27,27,0,1,0,59,32,27,27,0,0,0,32,5Zm0,37.8a10.79,10.79,0,1,1,5.5-1.5h0A10.73,10.73,0,0,1,32,42.8Zm0-19.6a8.82,8.82,0,0,0-7.62,4.4A8.62,8.62,0,0,0,23.2,32a8.79,8.79,0,0,0,4.33,7.58,8.83,8.83,0,0,0,8.95,0h0A8.8,8.8,0,0,0,32,23.2Z"/><path d="M32,55.4c-.22,0-.44,0-.66,0a23.39,23.39,0,1,1,1.27,0Zm0-2h.52a21.42,21.42,0,1,0-1.08,0Zm0-10.6a10.79,10.79,0,1,1,5.5-1.5h0A10.73,10.73,0,0,1,32,42.8Zm0-19.6a8.82,8.82,0,0,0-7.62,4.4A8.62,8.62,0,0,0,23.2,32a8.79,8.79,0,0,0,4.33,7.58,8.83,8.83,0,0,0,8.95,0h0A8.8,8.8,0,0,0,32,23.2Z"/><path d="M32,42.8a10.8,10.8,0,1,1,5.5-1.5A10.73,10.73,0,0,1,32,42.8Zm0-19.6a8.82,8.82,0,0,0-7.62,4.4A8.62,8.62,0,0,0,23.2,32a8.79,8.79,0,0,0,4.33,7.58,8.83,8.83,0,0,0,8.95,0A8.8,8.8,0,0,0,32,23.2Z"/><path d="M32.39,55.4h-.78l-.31,0c-2.46-.18-4.38-2.54-4.38-5.42L26,40.54a1,1,0,0,1,1.51-1,8.83,8.83,0,0,0,8.95,0,1,1,0,0,1,1.51,1l-.9,9.52c0,2.78-1.92,5.15-4.38,5.32ZM28.18,42.11l.73,7.76c0,1.93,1.13,3.44,2.56,3.52l.14,0h.92C34,53.31,35.09,51.8,35.09,50l.74-7.86A11,11,0,0,1,28.18,42.11Z"/><path d="M40.54,37.82a1,1,0,0,1-.87-1.49,8.8,8.8,0,0,0,0-8.7,1,1,0,0,1,1-1.49l8.16,1c2.91.08,5.29,2.25,5.22,4.82v.77A4.4,4.4,0,0,1,52.24,36a5.9,5.9,0,0,1-3.81,1.21l-7.81.56Zm1.62-9.49a10.82,10.82,0,0,1,0,7.37l6.23-.44A4,4,0,0,0,51,34.47a2.43,2.43,0,0,0,1-1.83v-.76h0c0-1.48-1.47-2.73-3.37-2.78Z"/><path d="M23.46,37.82h-.07l-8-.56a5.69,5.69,0,0,1-4.06-1.51,4.33,4.33,0,0,1-1.39-3l0-.75c-.05-2.59,2.33-4.76,5.31-4.84l8.22-1a1,1,0,0,1,1,1.5A8.62,8.62,0,0,0,23.2,32a8.81,8.81,0,0,0,1.13,4.32,1,1,0,0,1-.87,1.49Zm-8.08-2.56,6.47.45a10.83,10.83,0,0,1,0-7.4l-6.53.78c-2,.06-3.49,1.31-3.46,2.79l0,.75a2.35,2.35,0,0,0,.77,1.66A3.86,3.86,0,0,0,15.38,35.26Z"/></g></svg>